<svg width="20" height="20" viewBox="0 0 20 20" fill="none" xmlns="http://www.w3.org/2000/svg">
<path opacity="0.1" d="M19 10C19 14.9706 14.9706 19 10 19C5.02944 19 1 14.9706 1 10C1 5.02944 5.02944 1 10 1C14.9706 1 19 5.02944 19 10Z" fill="#1C212B"/>
<path fill-rule="evenodd" clip-rule="evenodd" d="M10 1C5.0275 1 1 5.0275 1 10C1 13.9825 3.57625 17.3463 7.15375 18.5388C7.60375 18.6175 7.7725 18.3475 7.7725 18.1113C7.7725 17.8975 7.76125 17.1888 7.76125 16.435C5.5 16.8513 4.915 15.8837 4.735 15.3775C4.63375 15.1187 4.195 14.32 3.8125 14.1062C3.4975 13.9375 3.0475 13.5212 3.80125 13.51C4.51 13.4987 5.01625 14.1625 5.185 14.4325C5.995 15.7937 7.28875 15.4113 7.80625 15.175C7.885 14.59 8.12125 14.1962 8.38 13.9712C6.3775 13.7462 4.285 12.97 4.285 9.5275C4.285 8.54875 4.63375 7.73875 5.2075 7.10875C5.1175 6.88375 4.8025 5.96125 5.2975 4.72375C5.2975 4.72375 6.05125 4.4875 7.7725 5.64625C8.4925 5.44375 9.2575 5.3425 10.0225 5.3425C10.7875 5.3425 11.5525 5.44375 12.2725 5.64625C13.9938 4.47625 14.7475 4.72375 14.7475 4.72375C15.2425 5.96125 14.9275 6.88375 14.8375 7.10875C15.4113 7.73875 15.76 8.5375 15.76 9.5275C15.76 12.9812 13.6563 13.7462 11.6538 13.9712C11.98 14.2525 12.2613 14.7925 12.2613 15.6363C12.2613 16.84 12.25 17.8075 12.25 18.1113C12.25 18.3475 12.4188 18.6288 12.8688 18.5388C16.4238 17.3463 19 13.9712 19 10C19 5.0275 14.9725 1 10 1Z" fill="#1C212B"/>
</svg>
