<svg width="20" height="20" viewBox="0 0 20 20" fill="none" xmlns="http://www.w3.org/2000/svg">
<path opacity="0.1" d="M17 10C17 13.866 13.866 17 10 17C6.13401 17 3 13.866 3 10C3 6.13401 6.13401 3 10 3C13.866 3 17 6.13401 17 10Z" fill="#1C212B"/>
<path fill-rule="evenodd" clip-rule="evenodd" d="M17 10C17 13.866 13.866 17 10 17C6.13401 17 3 13.866 3 10C3 6.13401 6.13401 3 10 3C13.866 3 17 6.13401 17 10ZM19 10C19 14.9706 14.9706 19 10 19C5.02944 19 1 14.9706 1 10C1 5.02944 5.02944 1 10 1C14.9706 1 19 5.02944 19 10ZM11.25 6.25C11.25 6.94036 10.6904 7.5 10 7.5C9.30967 7.5 8.75003 6.94036 8.75003 6.25C8.75003 5.55964 9.30967 5 10 5C10.6904 5 11.25 5.55964 11.25 6.25ZM6.80482 9.15435C7.15855 8.44689 7.88163 8 8.67259 8C9.99037 8 10.9787 9.20559 10.7203 10.4978L10.2796 12.7014C10.2487 12.8559 10.3668 13 10.5243 13C10.6389 13 10.7387 12.922 10.7665 12.8109L11.0299 11.7575C11.1638 11.2217 11.7068 10.8959 12.2426 11.0299C12.7784 11.1638 13.1041 11.7067 12.9702 12.2425L12.7068 13.296C12.4564 14.2974 11.5566 15 10.5243 15C9.10471 15 8.03998 13.7012 8.31839 12.3092L8.75912 10.1055C8.77004 10.0509 8.72827 10 8.67259 10C8.63917 10 8.60862 10.0189 8.59367 10.0488L8.39445 10.4472C8.14747 10.9412 7.54679 11.1414 7.05281 10.8944C6.55884 10.6474 6.35861 10.0468 6.6056 9.55279L6.80482 9.15435Z" fill="#1C212B"/>
</svg>
