<svg width="120" height="32" viewBox="0 0 120 32" fill="none" xmlns="http://www.w3.org/2000/svg">
<path fill-rule="evenodd" clip-rule="evenodd" d="M16 0C24.8365 0 32 7.16343 32 16C32 24.8365 24.8365 32 16 32C7.16343 32 0 24.8365 0 16C0 7.16343 7.16343 0 16 0ZM24.5249 12.5951C24.9244 12.1954 25.2248 11.7078 25.402 11.1713C25.5792 10.6348 25.6284 10.0642 25.5457 9.50529C25.4629 8.94635 25.2505 8.41453 24.9255 7.9524C24.6003 7.49025 24.1716 7.11063 23.6735 6.84388C23.1753 6.57712 22.6217 6.43065 22.0568 6.41619C21.492 6.40172 20.9316 6.51967 20.4205 6.76057C19.9095 7.00148 19.4617 7.35867 19.1135 7.80356C18.7651 8.24845 18.5257 8.76869 18.4145 9.32267C15.8515 8.35733 12.9105 8.97067 10.9531 10.9288C8.99352 12.8876 8.38095 15.8316 9.34933 18.3977C8.70515 18.5248 8.10765 18.8248 7.62081 19.2653C7.13397 19.7059 6.77611 20.2707 6.58553 20.8989C6.39496 21.5273 6.37884 22.1956 6.53891 22.8324C6.69899 23.4692 7.02921 24.0505 7.49425 24.514C7.95929 24.9776 8.54164 25.306 9.17895 25.464C9.81627 25.622 10.4845 25.6037 11.1123 25.4111C11.74 25.2185 12.3035 24.8588 12.7425 24.3705C13.1816 23.8823 13.4796 23.2839 13.6045 22.6392C14.8699 23.1092 16.2432 23.2067 17.5621 22.9203C18.8812 22.6339 20.0904 21.9756 21.0468 21.0232C22.9973 19.072 23.6145 16.1455 22.6636 13.5879C23.3692 13.45 24.0175 13.1042 24.5249 12.5951ZM20.2529 8.32305C20.7016 7.87519 21.3097 7.62365 21.9436 7.62365C22.5776 7.62365 23.1856 7.87519 23.6343 8.32305C24.0821 8.77185 24.3337 9.38003 24.3337 10.0141C24.3337 10.6482 24.0821 11.2563 23.6343 11.7051C23.3724 11.969 23.0523 12.1676 22.6996 12.285C22.3469 12.4024 21.9716 12.4352 21.6039 12.381C21.5687 12.3764 21.5331 12.3764 21.4979 12.381C21.2196 12.3444 20.9371 12.4043 20.6975 12.5507C20.458 12.6971 20.2757 12.9211 20.1813 13.1855C20.0755 13.4804 20.0808 13.8141 20.2225 14.1204C20.6136 14.9713 20.7352 15.9215 20.5712 16.8436C20.4071 17.7656 19.9651 18.6155 19.3044 19.2792C18.6405 19.9403 17.7904 20.3824 16.868 20.5465C15.9456 20.7107 14.9952 20.5888 14.144 20.1973C13.9965 20.1289 13.8369 20.0904 13.6745 20.0841C13.5121 20.0779 13.35 20.1039 13.1977 20.1608C12.9477 20.2529 12.7344 20.424 12.5901 20.648C12.4458 20.872 12.3783 21.1369 12.3977 21.4027C12.3916 21.4433 12.3916 21.4847 12.3977 21.5253C12.4597 21.9009 12.4314 22.2857 12.3152 22.6483C12.199 23.0108 11.9983 23.3404 11.7295 23.6099C11.2807 24.0573 10.6727 24.3087 10.0389 24.3087C9.40504 24.3087 8.79707 24.0573 8.34819 23.6099C8.1254 23.3884 7.94875 23.1249 7.82843 22.8348C7.70811 22.5445 7.64652 22.2333 7.64724 21.9192C7.64724 21.2808 7.89639 20.6796 8.34819 20.2279C8.88457 19.6915 9.62515 19.4453 10.4168 19.5535C10.4968 19.5695 10.5775 19.5809 10.6598 19.5809C10.9096 19.5811 11.1535 19.5052 11.3591 19.3632C11.5646 19.2212 11.722 19.02 11.8103 18.7863C11.9246 18.4868 11.9223 18.144 11.7775 17.8308C11.3863 16.9797 11.2647 16.0295 11.4287 15.1073C11.5928 14.1851 12.0349 13.3351 12.6956 12.6712C13.3595 12.0102 14.2096 11.568 15.132 11.4039C16.0544 11.2398 17.0048 11.3617 17.856 11.7531C18.1645 11.8964 18.5028 11.9009 18.7992 11.7912C19.0728 11.6912 19.302 11.4973 19.4459 11.244C19.5897 10.9907 19.6389 10.6946 19.5848 10.4084C19.5227 10.0327 19.5508 9.64763 19.6669 9.28501C19.7832 8.92239 19.984 8.59264 20.2529 8.32305ZM17.8911 17.8659C18.1409 17.6208 18.3396 17.3285 18.4759 17.0061C18.6121 16.6837 18.6831 16.3376 18.6848 15.9876C18.6864 15.6376 18.6187 15.2907 18.4855 14.9671C18.3524 14.6433 18.1564 14.3493 17.9089 14.1017C17.6613 13.8543 17.3673 13.6583 17.0436 13.5252C16.72 13.392 16.3731 13.3243 16.0231 13.3259C15.6731 13.3276 15.3269 13.3985 15.0045 13.5348C14.6821 13.6711 14.3899 13.8697 14.1448 14.1196C13.662 14.6192 13.3947 15.2884 13.4005 15.9831C13.4064 16.6779 13.6849 17.3424 14.1761 17.8337C14.6673 18.3251 15.332 18.6037 16.0267 18.6097C16.7213 18.6157 17.3915 18.3487 17.8911 17.8659Z" fill="#1C212B"/>
<path d="M43.9251 22.4091C42.7281 22.4091 41.6978 22.1667 40.8342 21.6818C39.9756 21.1919 39.314 20.5 38.8493 19.6061C38.3847 18.7071 38.1523 17.644 38.1523 16.4167C38.1523 15.2197 38.3847 14.1692 38.8493 13.2652C39.314 12.3611 39.968 11.6566 40.8114 11.1515C41.6599 10.6465 42.6549 10.394 43.7963 10.394C44.564 10.394 45.2786 10.5177 45.9402 10.7652C46.6069 11.0076 47.1877 11.3738 47.6826 11.8637C48.1826 12.3536 48.5715 12.9697 48.8493 13.7121C49.1271 14.4495 49.266 15.3132 49.266 16.3031V17.1894H39.4402V15.1894H46.2281C46.2281 14.7248 46.1271 14.3132 45.9251 13.9546C45.7231 13.596 45.4427 13.3157 45.0842 13.1137C44.7306 12.9066 44.319 12.8031 43.8493 12.8031C43.3594 12.8031 42.9251 12.9167 42.5463 13.144C42.1725 13.3662 41.8796 13.6667 41.6675 14.0455C41.4554 14.4192 41.3468 14.8359 41.3417 15.2955V17.197C41.3417 17.7727 41.4478 18.2702 41.6599 18.6894C41.8771 19.1086 42.1826 19.4318 42.5766 19.6591C42.9705 19.8864 43.4377 20 43.9781 20C44.3367 20 44.665 19.9495 44.9629 19.8485C45.2609 19.7475 45.516 19.596 45.7281 19.394C45.9402 19.1919 46.1018 18.9445 46.2129 18.6515L49.1978 18.8485C49.0463 19.5657 48.7357 20.1919 48.266 20.7273C47.8013 21.2576 47.2003 21.6717 46.4629 21.9697C45.7306 22.2626 44.8847 22.4091 43.9251 22.4091Z" fill="#1C212B"/>
<path d="M53.2207 10.5455L55.357 14.6137L57.5464 10.5455H60.857L57.4858 16.3637L60.9479 22.1818H57.6525L55.357 18.1591L53.0995 22.1818H49.7661L53.2207 16.3637L49.8873 10.5455H53.2207Z" fill="#1C212B"/>
<path d="M62.1337 26.5455V10.5455H65.3155V12.5H65.4595C65.6009 12.1869 65.8054 11.8687 66.0731 11.5455C66.3458 11.2172 66.6994 10.9445 67.1337 10.7273C67.5731 10.5051 68.1186 10.394 68.7701 10.394C69.6186 10.394 70.4014 10.6162 71.1186 11.0606C71.8357 11.5 72.409 12.1642 72.8383 13.0531C73.2675 13.9369 73.4822 15.0455 73.4822 16.3788C73.4822 17.6768 73.2726 18.7727 72.8534 19.6667C72.4393 20.5556 71.8736 21.2298 71.1564 21.6894C70.4443 22.144 69.6463 22.3712 68.7625 22.3712C68.1362 22.3712 67.6034 22.2677 67.164 22.0606C66.7297 21.8536 66.3736 21.5935 66.0958 21.2803C65.8181 20.9621 65.6059 20.6414 65.4595 20.3182H65.361V26.5455H62.1337ZM65.2928 16.3637C65.2928 17.0556 65.3888 17.6591 65.5807 18.1743C65.7726 18.6894 66.0504 19.0909 66.414 19.3788C66.7776 19.6616 67.2196 19.8031 67.7398 19.8031C68.265 19.8031 68.7095 19.6591 69.0731 19.3712C69.4367 19.0783 69.712 18.6743 69.8989 18.1591C70.0908 17.6389 70.1867 17.0404 70.1867 16.3637C70.1867 15.6919 70.0933 15.101 69.9064 14.5909C69.7196 14.0808 69.4443 13.6818 69.0807 13.394C68.717 13.1061 68.2701 12.9621 67.7398 12.9621C67.2145 12.9621 66.7701 13.101 66.4064 13.3788C66.0478 13.6566 65.7726 14.0505 65.5807 14.5606C65.3888 15.0707 65.2928 15.6717 65.2928 16.3637Z" fill="#1C212B"/>
<path d="M78.221 6.66669V22.1818H74.9937V6.66669H78.221Z" fill="#1C212B"/>
<path d="M85.4238 22.4091C84.247 22.4091 83.2293 22.1591 82.3708 21.6591C81.5172 21.1541 80.8581 20.452 80.3935 19.5531C79.9288 18.649 79.6965 17.601 79.6965 16.4091C79.6965 15.2071 79.9288 14.1566 80.3935 13.2576C80.8581 12.3536 81.5172 11.6515 82.3708 11.1515C83.2293 10.6465 84.247 10.394 85.4238 10.394C86.6005 10.394 87.6157 10.6465 88.4692 11.1515C89.3278 11.6515 89.9894 12.3536 90.4541 13.2576C90.9187 14.1566 91.1511 15.2071 91.1511 16.4091C91.1511 17.601 90.9187 18.649 90.4541 19.5531C89.9894 20.452 89.3278 21.1541 88.4692 21.6591C87.6157 22.1591 86.6005 22.4091 85.4238 22.4091ZM85.4389 19.9091C85.9743 19.9091 86.4213 19.7576 86.7798 19.4546C87.1384 19.1465 87.4086 18.7273 87.5904 18.197C87.7773 17.6667 87.8708 17.0632 87.8708 16.3864C87.8708 15.7096 87.7773 15.1061 87.5904 14.5758C87.4086 14.0455 87.1384 13.6263 86.7798 13.3182C86.4213 13.0101 85.9743 12.8561 85.4389 12.8561C84.8985 12.8561 84.444 13.0101 84.0753 13.3182C83.7117 13.6263 83.4364 14.0455 83.2495 14.5758C83.0677 15.1061 82.9768 15.7096 82.9768 16.3864C82.9768 17.0632 83.0677 17.6667 83.2495 18.197C83.4364 18.7273 83.7117 19.1465 84.0753 19.4546C84.444 19.7576 84.8985 19.9091 85.4389 19.9091Z" fill="#1C212B"/>
<path d="M92.6095 22.1818V10.5455H95.7383V12.5758H95.8595C96.0717 11.8536 96.4277 11.3081 96.9277 10.9394C97.4277 10.5657 98.0035 10.3788 98.655 10.3788C98.8166 10.3788 98.9908 10.3889 99.1777 10.4091C99.3646 10.4293 99.5287 10.4571 99.6701 10.4924V13.3561C99.5186 13.3106 99.309 13.2702 99.0414 13.2349C98.7737 13.1995 98.5287 13.1818 98.3065 13.1818C97.8318 13.1818 97.4075 13.2854 97.0338 13.4924C96.6651 13.6945 96.3722 13.9773 96.155 14.3409C95.9429 14.7046 95.8368 15.1238 95.8368 15.5985V22.1818H92.6095Z" fill="#1C212B"/>
<path d="M105.46 22.4091C104.263 22.4091 103.233 22.1667 102.369 21.6818C101.511 21.1919 100.849 20.5 100.384 19.6061C99.9197 18.7071 99.6873 17.644 99.6873 16.4167C99.6873 15.2197 99.9197 14.1692 100.384 13.2652C100.849 12.3611 101.503 11.6566 102.346 11.1515C103.195 10.6465 104.19 10.394 105.331 10.394C106.099 10.394 106.814 10.5177 107.475 10.7652C108.142 11.0076 108.723 11.3738 109.218 11.8637C109.718 12.3536 110.107 12.9697 110.384 13.7121C110.662 14.4495 110.801 15.3132 110.801 16.3031V17.1894H100.975V15.1894H107.763C107.763 14.7248 107.662 14.3132 107.46 13.9546C107.258 13.596 106.978 13.3157 106.619 13.1137C106.266 12.9066 105.854 12.8031 105.384 12.8031C104.894 12.8031 104.46 12.9167 104.081 13.144C103.708 13.3662 103.415 13.6667 103.202 14.0455C102.99 14.4192 102.882 14.8359 102.877 15.2955V17.197C102.877 17.7727 102.983 18.2702 103.195 18.6894C103.412 19.1086 103.718 19.4318 104.112 19.6591C104.506 19.8864 104.973 20 105.513 20C105.872 20 106.2 19.9495 106.498 19.8485C106.796 19.7475 107.051 19.596 107.263 19.394C107.475 19.1919 107.637 18.9445 107.748 18.6515L110.733 18.8485C110.581 19.5657 110.271 20.1919 109.801 20.7273C109.336 21.2576 108.735 21.6717 107.998 21.9697C107.266 22.2626 106.42 22.4091 105.46 22.4091Z" fill="#1C212B"/>
<path d="M112.267 22.1818V10.5455H115.396V12.5758H115.517C115.729 11.8536 116.085 11.3081 116.585 10.9394C117.085 10.5657 117.661 10.3788 118.312 10.3788C118.474 10.3788 118.648 10.3889 118.835 10.4091C119.022 10.4293 119.186 10.4571 119.328 10.4924V13.3561C119.176 13.3106 118.967 13.2702 118.699 13.2349C118.431 13.1995 118.186 13.1818 117.964 13.1818C117.489 13.1818 117.065 13.2854 116.691 13.4924C116.323 13.6945 116.03 13.9773 115.812 14.3409C115.6 14.7046 115.494 15.1238 115.494 15.5985V22.1818H112.267Z" fill="#1C212B"/>
</svg>
